<?xml version="1.0" encoding="UTF-8" standalone="no"?>
<svg
   xmlns:dc="http://purl.org/dc/elements/1.1/"
   xmlns:cc="http://creativecommons.org/ns#"
   xmlns:rdf="http://www.w3.org/1999/02/22-rdf-syntax-ns#"
   xmlns:svg="http://www.w3.org/2000/svg"
   xmlns="http://www.w3.org/2000/svg"
   xmlns:sodipodi="http://sodipodi.sourceforge.net/DTD/sodipodi-0.dtd"
   xmlns:inkscape="http://www.inkscape.org/namespaces/inkscape"
   width="473.52255"
   height="348.77661"
   viewBox="0 0 473.52255 348.77661"
   version="1.1"
   id="svg6"
   sodipodi:docname="mdSongbook.svg"
   inkscape:version="0.92.1 r15371">
  <sodipodi:namedview
     pagecolor="#ffffff"
     bordercolor="#666666"
     borderopacity="1"
     objecttolerance="10"
     gridtolerance="10"
     guidetolerance="10"
     inkscape:pageopacity="0"
     inkscape:pageshadow="2"
     inkscape:window-width="1920"
     inkscape:window-height="1028"
     id="namedview8"
     showgrid="false"
     inkscape:zoom="0.38100962"
     inkscape:cx="-340.97772"
     inkscape:cy="575.48982"
     inkscape:window-x="1272"
     inkscape:window-y="-8"
     inkscape:window-maximized="1"
     inkscape:current-layer="g2111"
     fit-margin-top="0"
     fit-margin-left="0"
     fit-margin-right="0"
     fit-margin-bottom="0" />
  <metadata
     id="metadata10169">
    <rdf:RDF>
      <cc:Work
         rdf:about="">
        <dc:format>image/svg+xml</dc:format>
        <dc:type
           rdf:resource="http://purl.org/dc/dcmitype/StillImage" />
        <dc:title></dc:title>
      </cc:Work>
    </rdf:RDF>
  </metadata>
  <defs
     id="defs10" />
  <path
     inkscape:connector-curvature="0"
     d="m 426.28545,327.65765 q -0.91822,0 -1.53036,-0.61214 -0.61214,-0.61214 -0.61214,-1.53036 v -73.86537 q 0,-0.91821 0.61214,-1.53036 0.61214,-0.61214 1.53036,-0.61214 h 7.95787 q 0.91822,0 1.53036,0.61214 0.61214,0.61215 0.61214,1.53036 v 38.36102 h 3.46882 l 18.26229,-19.5886 q 1.12227,-1.22429 2.75465,-1.22429 h 9.28418 q 0.91822,0 1.53036,0.61214 0.61215,0.51012 0.61215,1.32632 0,0.71416 -0.61215,1.53035 l -21.93515,22.85338 23.26146,28.97481 q 0.51012,0.71417 0.51012,1.32631 0,0.81619 -0.51012,1.32631 -0.51011,0.51012 -1.42833,0.51012 h -9.08014 q -1.93845,0 -3.16274,-1.53036 l -19.5886,-24.6898 h -3.3668 v 24.07766 q 0,0.91822 -0.61214,1.53036 -0.61214,0.61214 -1.53036,0.61214 z m -40.38077,1.32632 q -6.63156,0 -12.24288,-3.16275 -5.5093,-3.26477 -8.77406,-8.77406 -3.26477,-5.5093 -3.26477,-11.93681 v -13.36514 q 0,-6.42751 3.26477,-11.93681 3.26476,-5.50929 8.77406,-8.67203 5.61132,-3.26477 12.24288,-3.26477 6.63156,0 12.14085,3.26477 5.61132,3.16274 8.87609,8.67203 3.26477,5.5093 3.26477,11.93681 v 13.36514 q 0,6.42751 -3.26477,11.93681 -3.26477,5.50929 -8.87609,8.77406 -5.50929,3.16275 -12.14085,3.16275 z m 0,-11.83479 q 4.99917,0 8.46799,-3.46881 3.57084,-3.57084 3.57084,-8.57002 v -13.36514 q 0,-4.99917 -3.57084,-8.46799 -3.46882,-3.57084 -8.46799,-3.57084 -4.99918,0 -8.57002,3.57084 -3.46881,3.46882 -3.46881,8.46799 v 13.36514 q 0,4.99918 3.46881,8.57002 3.57084,3.46881 8.57002,3.46881 z m -60.97528,11.83479 q -6.63156,0 -12.24288,-3.16275 -5.5093,-3.26477 -8.77406,-8.77406 -3.26477,-5.5093 -3.26477,-11.93681 v -13.36514 q 0,-6.42751 3.26477,-11.93681 3.26476,-5.50929 8.77406,-8.67203 5.61132,-3.26477 12.24288,-3.26477 6.63156,0 12.14085,3.26477 5.61132,3.16274 8.87609,8.67203 3.26477,5.5093 3.26477,11.93681 v 13.36514 q 0,6.42751 -3.26477,11.93681 -3.26477,5.50929 -8.87609,8.77406 -5.50929,3.16275 -12.14085,3.16275 z m 0,-11.83479 q 4.99917,0 8.46799,-3.46881 3.57084,-3.57084 3.57084,-8.57002 v -13.36514 q 0,-4.99917 -3.57084,-8.46799 -3.46882,-3.57084 -8.46799,-3.57084 -4.99918,0 -8.57002,3.57084 -3.46881,3.46882 -3.46881,8.46799 v 13.36514 q 0,4.99918 3.46881,8.57002 3.57084,3.46881 8.57002,3.46881 z m -59.39232,11.83479 q -4.48906,0 -8.46799,-1.93846 -3.87691,-2.04048 -6.52954,-5.91739 v 4.38703 q 0,0.91822 -0.61214,1.53036 -0.61214,0.61214 -1.53036,0.61214 h -6.63156 q -0.91822,0 -1.53036,-0.61214 -0.61214,-0.61214 -0.61214,-1.53036 v -73.86537 q 0,-0.91821 0.61214,-1.53036 0.61214,-0.61214 1.53036,-0.61214 h 7.95787 q 0.91822,0 1.53036,0.61214 0.61215,0.61215 0.61215,1.53036 v 22.75135 q 2.55059,-3.16274 6.12143,-4.79512 3.67287,-1.73441 7.54978,-1.73441 6.22346,0 11.42669,3.26477 5.20322,3.16274 8.26394,8.57001 3.06072,5.40727 3.06072,11.63073 v 14.18134 q 0,6.22346 -3.16275,11.63073 -3.06071,5.40727 -8.36596,8.67204 -5.20323,3.16275 -11.22264,3.16275 z m -1.53036,-11.73276 q 4.99918,0 8.46799,-3.46882 3.57084,-3.57084 3.57084,-8.57001 v -13.56919 q 0,-4.99918 -3.57084,-8.46799 -3.46881,-3.57084 -8.46799,-3.57084 -4.99918,0 -8.57002,3.57084 -3.57083,3.46881 -3.57083,8.46799 v 13.56919 q 0,4.99917 3.57083,8.57001 3.57084,3.46882 8.57002,3.46882 z m -65.44997,31.52541 q -10.2024,0 -16.32384,-3.67286 -6.01941,-3.57084 -6.01941,-11.22264 0,-5.61132 3.87691,-9.69228 -3.67287,-2.9587 -3.67287,-8.16192 0,-3.46882 1.63239,-6.52954 1.73441,-3.16274 4.6931,-5.40727 -3.26477,-2.75464 -5.1012,-6.63156 -1.73441,-3.97893 -1.73441,-8.67204 0,-6.22346 2.9587,-11.01859 3.06072,-4.79512 8.16192,-7.34572 5.20322,-2.65263 11.42669,-2.65263 4.48905,0 8.57001,1.42834 h 20.09873 q 0.91821,0 1.53036,0.61214 0.61214,0.61215 0.61214,1.53036 v 6.73359 q 0,0.91821 -0.61214,1.53036 -0.61215,0.61214 -1.53036,0.61214 h -7.95788 q 1.73441,3.97894 1.73441,8.57001 0,6.12144 -3.06072,10.91657 -2.95869,4.6931 -8.05989,7.34573 -5.1012,2.5506 -11.32466,2.5506 -4.69311,0 -9.28419,-1.63239 -2.1425,2.14251 -2.1425,4.48906 0,2.04048 1.53036,2.85667 1.53036,0.71417 4.48905,0.91822 4.08096,0.20405 8.26395,0.20405 l 4.59108,0.10202 q 8.57001,0.20405 13.87526,3.06072 5.40727,2.85667 5.40727,10.81454 0,9.18216 -7.44775,13.77324 -7.34573,4.59108 -19.18051,4.59108 z m -0.10202,-49.88973 q 4.79512,0 7.54977,-2.75465 2.75465,-2.75465 2.75465,-7.34573 0,-4.59107 -2.75465,-7.44775 -2.75465,-2.85667 -7.54977,-2.85667 -4.79513,0 -7.6518,2.85667 -2.75465,2.85668 -2.75465,7.44775 0,4.59108 2.75465,7.34573 2.85667,2.75465 7.6518,2.75465 z m 1.02023,39.38126 q 13.26312,0 13.26312,-6.32549 0,-2.65262 -2.04048,-3.46881 -1.93845,-0.8162 -5.50929,-0.8162 h -9.99835 q -3.77489,0 -6.22347,-0.30607 -1.12226,1.83643 -1.12226,4.28501 0,3.87691 2.9587,5.20322 3.06072,1.42834 8.67203,1.42834 z m -82.25046,-10.6105 q -0.91822,0 -1.53036,-0.61214 -0.61215,-0.61214 -0.61215,-1.53036 v -54.17474 q 0,-0.91821 0.61215,-1.53036 0.61214,-0.61214 1.53036,-0.61214 h 7.95787 q 0.91821,0 1.53036,0.61214 0.61214,0.61215 0.61214,1.53036 v 4.79513 q 2.85667,-3.87691 6.73359,-6.01941 3.97893,-2.24453 8.67203,-2.24453 5.81537,0 10.40645,2.75465 4.6931,2.75464 7.34573,7.65179 2.65262,4.89716 2.65262,11.01859 v 36.21852 q 0,0.91822 -0.61214,1.53036 -0.61215,0.61214 -1.53036,0.61214 h -7.95787 q -0.91822,0 -1.53036,-0.61214 -0.61215,-0.61214 -0.61215,-1.53036 v -34.68816 q 0,-5.40727 -2.75464,-8.26394 -2.75465,-2.95869 -7.75383,-2.95869 -6.01941,0 -9.59025,3.97893 -3.46882,3.87691 -3.46882,10.71252 v 31.21934 q 0,0.91822 -0.61214,1.53036 -0.61215,0.61214 -1.53036,0.61214 z m -40.380777,1.32632 q -6.631559,0 -12.242878,-3.16275 -5.509295,-3.26477 -8.774063,-8.77406 -3.264767,-5.5093 -3.264767,-11.93681 v -13.36514 q 0,-6.42751 3.264767,-11.93681 3.264768,-5.50929 8.774063,-8.67203 5.611319,-3.26477 12.242878,-3.26477 6.63156,0 12.140855,3.26477 5.611319,3.16274 8.876087,8.67203 3.264765,5.5093 3.264765,11.93681 v 13.36514 q 0,6.42751 -3.264765,11.93681 -3.264768,5.50929 -8.876087,8.77406 -5.509295,3.16275 -12.140855,3.16275 z m 0,-11.83479 q 4.999176,0 8.467991,-3.46881 3.57084,-3.57084 3.57084,-8.57002 v -13.36514 q 0,-4.99917 -3.57084,-8.46799 -3.468815,-3.57084 -8.467991,-3.57084 -4.999175,0 -8.570014,3.57084 -3.468816,3.46882 -3.468816,8.46799 v 13.36514 q 0,4.99918 3.468816,8.57002 3.570839,3.46881 8.570014,3.46881 z m -56.404918,11.83479 q -5.509295,0 -10.6104942,-1.73441 -5.1011994,-1.73441 -9.0801349,-4.79513 -0.51011993,-0.4081 -0.71416791,-1.02024 -0.10202398,-0.71417 0.10202399,-1.32631 0.71416791,-1.63239 3.46881562,-6.42751 0.8161919,-1.22429 2.0404797,-1.22429 0.7141679,0 1.4283358,0.4081 3.6728639,2.5506 6.8356069,3.77488 3.264768,1.12227 6.835607,1.12227 4.285008,0 6.529535,-1.53036 2.244528,-1.63239 2.244528,-4.38703 0,-2.34656 -1.938456,-3.67287 -1.938455,-1.32631 -7.345727,-3.36679 l -3.672863,-1.42834 q -4.489056,-1.7344 -7.6517991,-3.67286 -3.1627436,-2.04048 -5.4072713,-5.50929 -2.1425037,-3.46882 -2.1425037,-8.67204 0,-8.0599 5.3052473,-12.753 5.4072708,-4.79513 14.2833578,-4.79513 5.203224,0 10.202399,1.73441 4.999175,1.63238 8.774063,4.59108 0.51012,0.40809 0.612144,1.12226 0.204048,0.61215 0,1.22429 -0.918216,2.1425 -3.06072,6.42751 -0.612144,1.12227 -1.938456,1.12227 -0.714168,0 -1.428335,-0.4081 -7.039656,-4.59108 -13.059071,-4.59108 -3.468815,0 -5.509295,1.53036 -1.938456,1.42834 -1.938456,4.08096 0,2.65262 2.244528,4.48905 2.244528,1.73441 8.263943,4.08096 5.815367,2.24453 8.978111,3.87692 3.264767,1.53036 5.917391,4.99917 2.754648,3.36679 2.754648,8.77406 0,5.30525 -2.754648,9.38621 -2.652624,4.08096 -7.549775,6.32549 -4.795128,2.24453 -11.018591,2.24453 z"
     style="font-style:normal;font-variant:normal;font-weight:bold;font-stretch:normal;font-size:102.02398682px;font-family:'Miriam Libre';-inkscape-font-specification:'Miriam Libre, Bold';font-variant-ligatures:normal;font-variant-caps:normal;font-variant-numeric:normal;font-feature-settings:normal;text-align:start;writing-mode:lr-tb;text-anchor:start;display:inline;stroke-width:2.55059958px;fill:#37474f;fill-opacity:1"
     id="path10291" />
  <rect
     width="356.9397"
     height="212.72163"
     x="58.291428"
     y="9.013628"
     ry="18.027256"
     id="rect2"
     style="display:inline;fill:none;stroke:#37474f;stroke-width:18.02725601;fill-opacity:1;stroke-opacity:1" />
  <g
     id="g2111"
     style="display:inline;fill:#000000"
     transform="matrix(18.090891,0,0,9.4750702,-1432.8381,-4070.9824)">
    <path
       inkscape:connector-curvature="0"
       id="path10302"
       transform="matrix(0.05527644,0,0,0.10554012,79.202184,429.65195)"
       d="M 272.54271,53.490234 V 167.56309 c 0,8.91252 8.14808,9.64569 17.50612,8.94082 11.35436,-0.99267 22.9725,-6.7708 32.50976,-9.87696 8.15206,-2.65264 17.32977,-5.74846 29.46875,-11.8125 8.37609,-4.40591 14.43632,-8.85002 18.19922,-13.32226 3.74482,-4.48171 5.62696,-8.91637 5.62696,-13.32227 0,-6.51885 -3.31038,-11.15232 -9.93164,-13.89062 -7.48964,-2.88042 -15.57573,-4.32032 -24.20508,-4.32032 -14.55271,0.6083 -21.62839,2.68466 -35.16016,7.10743 V 53.490234 Z m 52.07643,68.312496 c 9.44345,0 15.43254,2.80425 18.01953,8.39454 0.28946,0.4548 0.4336,1.28914 0.4336,2.50195 0,5.44817 -3.90021,10.66642 -14.59961,17.66992 l -21.91602,11.33594 v -32.24805 c 4.21513,-4.99356 11.95122,-7.6416 18.0625,-7.6543 z"
       style="display:inline;fill:#e91e63;fill-opacity:1;stroke-width:1.80272567"
       sodipodi:nodetypes="csccccscccccccscccc" />
    <path
       inkscape:connector-curvature="0"
       id="path10300"
       transform="matrix(0.05527644,0,0,0.10554012,78.470395,421.92218)"
       d="M 116.59766,127.32227 V 249.9082 h 36.05468 v -70.30664 l 36.05469,45.06836 36.05469,-45.06836 v 70.30664 h 36.05469 V 127.32227 h -36.05469 l -36.05469,45.06835 -36.05469,-45.06835 z"
       style="display:inline;fill:#37474b;fill-opacity:1;stroke-width:1.80272567" />
  </g>
</svg>
