<svg width="374.97" height="230.75" version="1.1" viewBox="0 0 374.96695 230.74889" xmlns="http://www.w3.org/2000/svg"><rect x="9.0136" y="9.0136" width="356.94" height="212.72" ry="18.027" fill="none" stroke="#37474f" stroke-width="18.027"/><path d="m223.26 54.082v113.49c0 8.867 8.1481 9.5964 17.506 8.8951 11.354-0.9876 22.972-6.7362 32.51-9.8265 8.1521-2.6391 17.33-5.7191 29.469-11.752 8.3761-4.3834 14.436-8.8048 18.199-13.254 3.7448-4.4588 5.627-8.8708 5.627-13.254 0-6.4855-3.3104-11.095-9.9316-13.82-7.4896-2.8657-15.576-4.2982-24.205-4.2982-14.553 0.60519-21.628 2.6709-35.16 7.0711v-63.251zm52.076 67.964c9.4434 0 15.433 2.7899 18.02 8.3517 0.28946 0.45247 0.4336 1.2826 0.4336 2.4892 0 5.4203-3.9002 10.612-14.6 17.58l-21.916 11.278v-32.083c4.2151-4.968 11.951-7.6026 18.062-7.6152z" fill="#e91e63" stroke-width="1.7981"/><path d="m54.081 54.082v122.59h36.055v-70.307l36.055 45.068 36.055-45.068v70.307h36.055v-122.59h-36.055l-36.055 45.068-36.055-45.068z" fill="#37474b" stroke-width="1.8027"/></svg>
