<?xml version="1.0" encoding="UTF-8" standalone="no"?>
<svg
   xmlns:dc="http://purl.org/dc/elements/1.1/"
   xmlns:cc="http://creativecommons.org/ns#"
   xmlns:rdf="http://www.w3.org/1999/02/22-rdf-syntax-ns#"
   xmlns:svg="http://www.w3.org/2000/svg"
   xmlns="http://www.w3.org/2000/svg"
   xmlns:sodipodi="http://sodipodi.sourceforge.net/DTD/sodipodi-0.dtd"
   xmlns:inkscape="http://www.inkscape.org/namespaces/inkscape"
   width="374.96695"
   height="230.74889"
   viewBox="0 0 374.96695 230.74889"
   version="1.1"
   id="svg6"
   sodipodi:docname="markflat.logo.svg"
   inkscape:version="0.92.1 r15371">
  <sodipodi:namedview
     pagecolor="#ffffff"
     bordercolor="#666666"
     borderopacity="1"
     objecttolerance="10"
     gridtolerance="10"
     guidetolerance="10"
     inkscape:pageopacity="0"
     inkscape:pageshadow="2"
     inkscape:window-width="1920"
     inkscape:window-height="1028"
     id="namedview8"
     showgrid="false"
     inkscape:zoom="0.38100962"
     inkscape:cx="-390.25552"
     inkscape:cy="562.44633"
     inkscape:window-x="1272"
     inkscape:window-y="-8"
     inkscape:window-maximized="1"
     inkscape:current-layer="svg6"
     fit-margin-top="0"
     fit-margin-left="0"
     fit-margin-right="0"
     fit-margin-bottom="0" />
  <metadata
     id="metadata10169">
    <rdf:RDF>
      <cc:Work
         rdf:about="">
        <dc:format>image/svg+xml</dc:format>
        <dc:type
           rdf:resource="http://purl.org/dc/dcmitype/StillImage" />
        <dc:title></dc:title>
      </cc:Work>
    </rdf:RDF>
  </metadata>
  <defs
     id="defs10" />
  <rect
     width="356.9397"
     height="212.72163"
     x="9.013628"
     y="9.013628"
     ry="18.027256"
     id="rect2"
     style="display:inline;fill:none;fill-opacity:1;stroke:#37474f;stroke-width:18.02725601;stroke-opacity:1" />
  <g
     id="g2111"
     style="display:inline;fill:#000000"
     transform="matrix(18.090891,0,0,9.4750702,-1482.1159,-4070.9824)">
    <path
       inkscape:connector-curvature="0"
       id="path10302"
       transform="matrix(0.05527644,0,0,0.10554012,79.202184,429.65195)"
       d="M 272.54271,53.490234 V 167.56309 c 0,8.91252 8.14808,9.64569 17.50612,8.94082 11.35436,-0.99267 22.9725,-6.7708 32.50976,-9.87696 8.15206,-2.65264 17.32977,-5.74846 29.46875,-11.8125 8.37609,-4.40591 14.43632,-8.85002 18.19922,-13.32226 3.74482,-4.48171 5.62696,-8.91637 5.62696,-13.32227 0,-6.51885 -3.31038,-11.15232 -9.93164,-13.89062 -7.48964,-2.88042 -15.57573,-4.32032 -24.20508,-4.32032 -14.55271,0.6083 -21.62839,2.68466 -35.16016,7.10743 V 53.490234 Z m 52.07643,68.312496 c 9.44345,0 15.43254,2.80425 18.01953,8.39454 0.28946,0.4548 0.4336,1.28914 0.4336,2.50195 0,5.44817 -3.90021,10.66642 -14.59961,17.66992 l -21.91602,11.33594 v -32.24805 c 4.21513,-4.99356 11.95122,-7.6416 18.0625,-7.6543 z"
       style="display:inline;fill:#e91e63;fill-opacity:1;stroke-width:1.80272567"
       sodipodi:nodetypes="csccccscccccccscccc" />
    <path
       inkscape:connector-curvature="0"
       id="path10300"
       transform="matrix(0.05527644,0,0,0.10554012,78.470395,421.92218)"
       d="M 116.59766,127.32227 V 249.9082 h 36.05468 v -70.30664 l 36.05469,45.06836 36.05469,-45.06836 v 70.30664 h 36.05469 V 127.32227 h -36.05469 l -36.05469,45.06835 -36.05469,-45.06835 z"
       style="display:inline;fill:#37474b;fill-opacity:1;stroke-width:1.80272567" />
  </g>
</svg>
