<?xml version="1.0" encoding="UTF-8" standalone="no"?>
<svg
   xmlns:dc="http://purl.org/dc/elements/1.1/"
   xmlns:cc="http://creativecommons.org/ns#"
   xmlns:rdf="http://www.w3.org/1999/02/22-rdf-syntax-ns#"
   xmlns:svg="http://www.w3.org/2000/svg"
   xmlns="http://www.w3.org/2000/svg"
   xmlns:sodipodi="http://sodipodi.sourceforge.net/DTD/sodipodi-0.dtd"
   xmlns:inkscape="http://www.inkscape.org/namespaces/inkscape"
   width="374.96695"
   height="230.74889"
   viewBox="0 0 374.96695 230.74889"
   version="1.1"
   id="svg6"
   sodipodi:docname="markflat.logo.svg"
   inkscape:version="0.92.1 r15371">
  <sodipodi:namedview
     pagecolor="#ffffff"
     bordercolor="#666666"
     borderopacity="1"
     objecttolerance="10"
     gridtolerance="10"
     guidetolerance="10"
     inkscape:pageopacity="0"
     inkscape:pageshadow="2"
     inkscape:window-width="1920"
     inkscape:window-height="1028"
     id="namedview8"
     showgrid="false"
     inkscape:zoom="0.53882897"
     inkscape:cx="-46.132958"
     inkscape:cy="362.4505"
     inkscape:window-x="1272"
     inkscape:window-y="-8"
     inkscape:window-maximized="1"
     inkscape:current-layer="svg6"
     fit-margin-top="0"
     fit-margin-left="0"
     fit-margin-right="0"
     fit-margin-bottom="0"
     inkscape:measure-start="275.584,135.823"
     inkscape:measure-end="257.539,147.306" />
  <metadata
     id="metadata10169">
    <rdf:RDF>
      <cc:Work
         rdf:about="">
        <dc:format>image/svg+xml</dc:format>
        <dc:type
           rdf:resource="http://purl.org/dc/dcmitype/StillImage" />
        <dc:title></dc:title>
      </cc:Work>
    </rdf:RDF>
  </metadata>
  <defs
     id="defs10" />
  <rect
     width="356.9397"
     height="212.72163"
     x="9.013628"
     y="9.013628"
     ry="18.027256"
     id="rect2"
     style="display:inline;fill:none;fill-opacity:1;stroke:#37474f;stroke-width:18.02725601;stroke-opacity:1" />
  <path
     sodipodi:nodetypes="csccccscccccccscccc"
     style="display:inline;fill:#e91e63;fill-opacity:1;stroke-width:1.7981149"
     d="m 223.26489,54.08207 v 113.49008 c 0,8.86699 8.14808,9.59641 17.50612,8.89514 11.35436,-0.9876 22.9725,-6.73621 32.50976,-9.8265 8.15206,-2.63909 17.32977,-5.71909 29.46875,-11.75215 8.37609,-4.3834 14.43632,-8.80481 18.19922,-13.2542 3.74482,-4.45881 5.62696,-8.87082 5.62696,-13.25421 0,-6.48554 -3.31038,-11.09534 -9.93164,-13.81965 -7.48964,-2.86571 -15.57573,-4.29825 -24.20508,-4.29825 -14.55271,0.60519 -21.62839,2.67094 -35.16016,7.07112 V 54.08207 Z m 52.07643,67.9635 c 9.44345,0 15.43254,2.78993 18.01953,8.35166 0.28946,0.45247 0.4336,1.28255 0.4336,2.48916 0,5.42034 -3.90021,10.61193 -14.59961,17.57965 l -21.91602,11.27803 v -32.0833 c 4.21513,-4.96805 11.95122,-7.60256 18.0625,-7.6152 z"
     id="path10302"
     inkscape:connector-curvature="0" />
  <path
     style="display:inline;fill:#37474b;fill-opacity:1;stroke-width:1.80272567"
     d="M 54.081123,54.082144 V 176.66807 h 36.05468 v -70.30664 l 36.054687,45.06836 36.05469,-45.06836 v 70.30664 h 36.05469 V 54.082144 h -36.05469 l -36.05469,45.06835 -36.054687,-45.06835 z"
     id="path10300"
     inkscape:connector-curvature="0" />
</svg>
