<svg width="374.97" height="230.75" version="1.1" viewBox="0 0 374.96695 230.74889" xmlns="http://www.w3.org/2000/svg"><rect x="9.0136" y="9.0136" width="356.94" height="212.72" ry="18.027" fill="none" stroke="#37474f" stroke-width="18.027"/><g transform="matrix(18.091 0 0 9.4751 -1482.1 -4071)" stroke-width="1.8027"><path transform="matrix(.055276 0 0 .10554 79.202 429.65)" d="m272.54 53.49v114.07c0 8.9125 8.1481 9.6457 17.506 8.9408 11.354-0.99267 22.972-6.7708 32.51-9.877 8.1521-2.6526 17.33-5.7485 29.469-11.812 8.3761-4.4059 14.436-8.85 18.199-13.322 3.7448-4.4817 5.627-8.9164 5.627-13.322 0-6.5188-3.3104-11.152-9.9316-13.891-7.4896-2.8804-15.576-4.3203-24.205-4.3203-14.553 0.6083-21.628 2.6847-35.16 7.1074v-63.576zm52.076 68.312c9.4434 0 15.433 2.8042 18.02 8.3945 0.28946 0.4548 0.4336 1.2891 0.4336 2.502 0 5.4482-3.9002 10.666-14.6 17.67l-21.916 11.336v-32.248c4.2151-4.9936 11.951-7.6416 18.062-7.6543z" fill="#e91e63"/><path transform="matrix(.055276 0 0 .10554 78.47 421.92)" d="m116.6 127.32v122.59h36.055v-70.307l36.055 45.068 36.055-45.068v70.307h36.055v-122.59h-36.055l-36.055 45.068-36.055-45.068z" fill="#37474b"/></g></svg>
